<svg width="105" height="105" viewBox="0 0 105 105" fill="none" xmlns="http://www.w3.org/2000/svg">
	<path d="M30.6564 56.1447C32.4445 55.5433 34.2307 55.5042 36.0151 56.0274L45.4239 46.6186C40.9344 43.9877 36.2405 43.1104 31.3423 43.9869C26.4772 44.8301 21.9538 47.3426 17.7722 51.5243C14.3206 54.9758 12.0089 58.8039 10.8371 63.0086C9.63232 67.1802 9.61818 71.381 10.7947 75.6108C11.9714 79.7744 14.274 83.5704 17.7024 86.9988C21.1308 90.4272 24.9268 92.7298 29.0905 93.9065C33.2873 95.0501 37.488 95.0359 41.6927 93.8641C45.8975 92.6262 49.7257 90.2814 53.1773 86.8299C56.0978 83.9093 58.1593 80.7271 59.3616 77.2831C60.5639 73.8391 61.0053 70.4638 60.6856 67.1573C60.3992 63.8175 59.5164 60.7775 58.0371 58.0371C60.7775 59.5163 63.8175 60.3992 67.1573 60.6856C70.4638 61.0053 73.8391 60.5639 77.2831 59.3616C80.7271 58.1592 83.9093 56.0978 86.8299 53.1773C90.2814 49.7257 92.6262 45.8975 93.8641 41.6927C95.036 37.488 95.0501 33.2873 93.9066 29.0905C92.7298 24.9268 90.4273 21.1308 86.9989 17.7024C83.5705 14.274 79.7744 11.9714 75.6108 10.7947C71.381 9.61817 67.1802 9.6323 63.0086 10.8371C58.8039 12.0089 54.9759 14.3206 51.5243 17.7721C47.3426 21.9538 44.8301 26.4772 43.9869 31.3422C43.1104 36.2405 43.9877 40.9344 46.6187 45.4239L56.0274 36.0151C55.5042 34.2307 55.5433 32.4445 56.1447 30.6563C56.6799 28.8684 57.7441 27.1779 59.3371 25.5849C62.0917 22.8303 65.2052 21.5299 68.6777 21.6836C72.1173 21.8043 75.337 23.3646 78.3368 26.3644C81.5344 29.5621 83.1769 32.9303 83.2642 36.4692C83.2854 40.0083 81.7693 43.3045 78.7161 46.3578C76.6252 48.4486 74.3388 49.6801 71.8568 50.0523C69.3417 50.4577 66.7632 50.0033 64.1216 48.6891L74.9242 37.8865L68.6938 31.656L50.1749 50.1749L31.656 68.6938L37.8865 74.9242L48.6892 64.1215C50.0033 66.7632 50.4577 69.3417 50.0523 71.8568C49.6801 74.3388 48.4486 76.6252 46.3578 78.716C43.3045 81.7693 40.0083 83.2854 36.4692 83.2642C32.9303 83.1769 29.5621 81.5344 26.3645 78.3368C23.3646 75.3369 21.8043 72.1172 21.6836 68.6777C21.5299 65.2052 22.8303 62.0917 25.5849 59.3371C27.178 57.7441 28.8684 56.6799 30.6564 56.1447Z" fill="white" />
</svg>
